<svg width="42" height="41" fill="none" xmlns="http://www.w3.org/2000/svg"><path d="M35.064.84H6.846C3.623.84 1 3.413 1 6.576v27.687C1 37.426 3.623 40 6.846 40h28.218c3.224 0 5.846-2.574 5.846-5.737V6.576c0-3.163-2.622-5.736-5.846-5.736zm3.508 33.423c0 1.898-1.574 3.442-3.508 3.442H6.846c-1.934 0-3.508-1.544-3.508-3.442V6.576c0-1.898 1.574-3.442 3.508-3.442h28.218c1.934 0 3.508 1.544 3.508 3.442v27.687z" fill="#070707" stroke="#070707" stroke-width=".5"/><mask id="a" fill="#fff"><path d="M31.93 29.224h-4.285v-.194-6.846c0-.486-.036-.966-.16-1.44-.512-1.953-2.724-1.839-3.604-.913-.442.465-.73.991-.743 1.641-.003.155-.012.31-.012.464V29.222h-4.277V16.159h4.274v1.752l.034.015c.031-.04.062-.08.092-.122.429-.585.921-1.104 1.575-1.455.73-.392 1.52-.524 2.341-.5.89.025 1.733.222 2.494.692.974.604 1.568 1.487 1.916 2.546.271.826.36 1.677.361 2.54.002 2.481.001 4.963 0 7.445 0 .048-.004.097-.007.153z"/></mask><path d="M31.93 29.224h-4.285v-.194-6.846c0-.486-.036-.966-.16-1.44-.512-1.953-2.724-1.839-3.604-.913-.442.465-.73.991-.743 1.641-.003.155-.012.31-.012.464V29.222h-4.277V16.159h4.274v1.752l.034.015c.031-.04.062-.08.092-.122.429-.585.921-1.104 1.575-1.455.73-.392 1.52-.524 2.341-.5.89.025 1.733.222 2.494.692.974.604 1.568 1.487 1.916 2.546.271.826.36 1.677.361 2.54.002 2.481.001 4.963 0 7.445 0 .048-.004.097-.007.153z" fill="#070707"/><path d="M31.93 29.224v.03h.028l.002-.028-.03-.002zm-4.285 0h-.03v.03h.03v-.03zm0-7.04h.031-.03zm-.16-1.44l.03-.007-.03.008zm-3.604-.913l.023.021-.023-.02zm-.743 1.641h-.03.03zm-.012.464h.03-.03zm0 7.287v.03h.03v-.03h-.03zm-4.277 0h-.03v.03h.03v-.03zm0-13.065v-.03h-.03v.03h.03zm4.274 0h.03v-.03h-.03v.03zm0 1.752h-.03v.02l.018.009.012-.029zm.034.015l-.011.028.022.01.014-.02-.024-.018zm.092-.122l.025.018-.025-.018zm1.575-1.455l.015.027-.015-.027zm2.341-.5l.001-.031v.03zm2.494.692l.016-.026-.016.026zm1.916 2.546l-.029.01.03-.01zm.361 2.54h.03-.03zm0 7.445h-.03.03zm-.007.122H27.645v.062H31.93v-.062zm-4.253.031v-.001-.001-.001-.001-.001-.001-.001-.001-.001-.001-.001-.001-.001-.001-.001-.001-.001-.001-.001-.001-.001-.001-.001-.001-.001-.001-.001-.001-.001-.001-.001-.001-.001-.001-.001-.001-.001-.001-.001-.001-.001-.001-.001-.001-.001-.001-.001-.001-.001-.001-.001-.001-.001-.001-.001-.001-.001-.001-.001-.001-.001-.001-.001-.001-.001-.001-.001-.001-.001-.001-.001-.001-.001-.001-.001-.001-.001-.001-.001-.001-.001-.001-.001-.001-.001-.001-.001-.001-.001-.001-.001-.001-.001-.001-.001-.001-.001-.001-.001-.001-.001-.001-.001-.001-.001-.001-.001-.001-.001-.001-.001-.001-.001-.001-.001-.001-.001-.001-.001-.001-.001-.001-.001-.001-.001-.001-.001-.001-.001-.001-.001-.001-.001-.001-.001-.001-.001-.001-.001-.001-.001-.001-.001-.001-.001-.001-.001-.001-.001-.001-.001-.001-.001-.001-.001-.001-.001-.001-.001-.001-.001-.001-.001-.001-.001-.001-.001-.001-.001-.001-.001-.001-.001-.001-.001-.001-.001-.001-.001-.001-.001-.001-.001-.001-.001-.001-.001-.001-.001-.001-.001-.001-.001-.001h-.061V29.225h.06zm0-.194v-6.846h-.061v6.846h.06zm0-6.846c0-.487-.037-.97-.162-1.447l-.059.016c.123.47.16.947.16 1.43h.061zm-.162-1.447c-.259-.99-.95-1.458-1.689-1.56-.735-.1-1.518.162-1.966.633l.044.042c.433-.455 1.196-.712 1.914-.614.715.099 1.386.55 1.638 1.515l.06-.016zm-3.655-.927c-.446.469-.74 1.002-.752 1.662h.062c.012-.64.296-1.158.735-1.62l-.045-.042zm-.752 1.662c-.002.152-.012.31-.012.464h.062c0-.154.009-.306.012-.463l-.062-.001zm-.012.464v7.086h.061v-7.086h-.06zm0 7.086V29.223h.061v-.001-.001-.001-.001-.001-.001-.001-.001-.001-.001-.001-.001-.001-.001-.001-.001-.001-.001-.001-.001-.001-.001-.001-.001-.001-.001-.001-.001-.001-.001-.001-.001-.001-.001-.001-.001-.001-.001-.001-.001-.001-.001-.001-.001-.001-.001-.001-.001-.001-.001-.001-.001-.001-.001-.001-.001-.001-.001-.001-.001-.001-.001-.001-.001-.001-.001-.001-.001-.001-.001-.001-.001-.001-.001-.001-.001-.001-.001-.001-.001-.001-.001-.001-.001-.001-.001-.001-.001-.001-.001-.001-.001-.001-.001-.001-.001-.001-.001-.001-.001-.001-.001-.001-.001-.001-.001-.001-.001-.001-.001-.001-.001-.001-.001-.001-.001-.001-.001-.001-.001-.001-.001-.001-.001-.001-.001-.001-.001-.001-.001-.001-.001-.001-.001-.001-.001-.001-.001-.001-.001-.001-.001-.001-.001-.001-.001-.001-.001-.001-.001-.001-.001-.001-.001-.001-.001-.001-.001-.001-.001-.001-.001-.001-.001-.001-.001-.001-.001-.001-.001-.001-.001-.001-.001-.001-.001-.001-.001-.001-.001-.001-.001-.001-.001-.001-.001-.001-.001-.001-.001-.001-.001-.001-.001-.001-.001-.001-.001-.001h-.061zm.03.17H18.85v.061H23.125v-.06zm-4.245.03v-.025-.025-.026-.025-.026-.025-.026-.025-.026-.025-.026-.025-.026-.025-.026-.026-.025-.026-.025-.026-.025-.026-.025-.026-.025-.026-.025-.026-.025-.026-.025-.026-.025-.026-.025-.026-.025-.026-.025-.026-.025-.026-.025-.026-.025-.026-.026-.025-.026-.025-.025-.026-.026-.025-.026-.025-.026-.025-.026-.025-.026-.025-.026-.025-.026-.025-.026-.025-.026-.025-.026-.025-.026-.025-.026-.025-.026-.025-.026-.025-.026-.025-.026-.026-.025-.025-.026-.026-.025-.026-.025-.026-.025-.026-.025-.026-.025-.026-.025-.026-.025-.026-.025-.026-.025-.026-.025-.026-.025-.026-.025-.026-.025-.026-.025-.026-.025-.026-.025-.026-.025-.026-.026-.025-.026-.025-.025-.026-.026-.025-.025-.026-.026-.025-.026-.025-.026-.025-.026-.025-.026-.025-.026-.025-.026-.025-.026-.025-.026-.025-.026-.025-.026-.025-.026-.025-.026-.025-.026-.025-.026-.025-.026-.025-.026-.025-.026-.025-.026-.025-.026-.026-.025-.026-.025-.025-.026-.026-.025-.025-.026-.026-.025-.026-.025-.026-.025-.026-.025-.026-.025-.026-.025-.026-.025-.026-.025-.026-.025-.026-.025-.026-.025-.026-.025-.026-.025-.026-.025-.026-.025-.026-.025-.026-.025-.026-.025-.026-.025-.026-.026-.025-.026-.025-.025-.026-.026-.025-.026-.025-.026-.025-.026-.025-.026-.025-.026-.025-.026-.025-.026-.025-.026-.025-.026-.025-.026-.025-.026-.025-.026-.025-.026-.025-.026-.025-.026-.025-.026-.025-.026-.025-.026-.025-.026-.026-.025-.026-.025-.026-.025-.026-.025-.026-.025-.026-.025-.026-.025-.026-.025-.026-.025-.026-.025-.026-.025-.026-.025-.026-.025-.026-.025-.026-.025-.026-.025-.026-.025-.026-.025-.026-.026-.025-.025-.026-.026-.025-.025-.026-.026-.025-.026-.025-.026-.025-.026-.025-.026-.025-.026-.025-.026-.025-.026-.025-.026-.025-.026-.025-.026-.025-.026-.025-.026-.025-.026-.026-.025-.026-.025-.026-.025-.026-.025-.026-.025-.026-.025-.026-.025-.026-.025-.026-.025-.026-.025-.026-.025-.026-.025-.026-.025-.026-.026-.025-.026-.025-.026-.025-.026-.025-.026-.025-.026-.025-.026-.025-.026-.025-.026-.025-.026-.025-.026-.025-.026-.026-.025-.025-.026-.026-.025-.026-.025-.026-.025-.026-.025-.026-.025-.026-.025-.026-.025-.026-.025-.026-.025-.026-.026-.025-.025-.026-.026-.025-.026-.025-.026-.025-.026-.025-.026-.025-.026-.025-.026-.025-.026-.026-.025-.025-.026-.026-.025-.026-.025-.026-.025-.026-.025-.026-.025-.026-.025-.026-.026-.025-.026-.025-.026-.025-.026-.025-.026-.025-.026-.025-.026-.025-.026-.025-.026-.025-.026-.026-.025-.026-.025-.026-.025-.026-.025-.026-.025-.026-.025-.026V17v-.025-.026-.025-.026-.025-.026-.025-.026-.025-.026-.025-.026-.025-.026-.026-.025-.026-.025-.026-.025-.026-.025-.026-.025-.026-.025-.026-.026-.025-.026-.025-.026-.025h-.061V29.223h.06zm-.03-13.034H23.122v-.06H18.85v.06zm4.243-.03V17.91h.06v-.003-.003-.004-.003-.004-.003-.003-.004-.003-.004-.003-.004-.003-.003-.004-.003-.004-.003-.003-.004-.003-.004-.003-.003-.004-.003-.004-.003-.003-.004-.003-.004-.003-.003-.004-.003-.004-.003-.003-.004-.003-.004-.003-.003-.004-.003-.004-.003-.003-.004-.003-.004-.003-.004-.003-.003-.004-.003-.004-.003-.003-.004-.003-.004-.003-.003-.004-.003-.004-.003-.003-.004-.003-.004-.003-.004-.003-.003-.004-.003-.004-.003-.003-.004-.003-.004-.003-.003-.004-.003-.004-.003-.003-.004-.003-.004-.003-.003-.004-.003-.004-.003-.003-.004-.003-.004-.003-.004-.003-.003-.004-.003-.004-.003-.003-.004-.003-.004-.003-.003-.004-.003-.004-.003-.003-.004-.003-.004-.003-.004-.003-.003-.004-.003-.004-.003-.003-.004-.003-.004-.003-.003-.004-.003-.004-.003-.003-.004-.003-.004-.003-.004-.003-.003-.004-.003-.004-.003-.003-.004-.003-.004-.003-.003-.004-.003-.004-.003-.004-.003-.003-.004-.003-.004-.003-.003-.004-.003-.004-.003-.003-.004-.003-.004-.003-.004-.003-.003-.004-.003-.004-.003-.003-.004-.003-.004-.003-.004-.003-.003-.004-.003-.004-.003-.003-.004-.003-.004-.003-.003-.004-.003-.004-.003-.004-.003-.003-.004-.003-.004-.003-.003-.004-.003-.004-.003-.004-.003-.003-.004-.003-.004-.003-.003-.004-.003-.004-.003-.004-.003-.003-.004-.003-.004-.003-.003-.004-.003-.004-.003-.004-.003-.003-.004-.003-.004-.003-.003-.004-.003-.004-.003-.004-.003-.003-.004V17v-.004-.003-.003-.004-.003-.004-.003-.004-.003-.004-.003-.003-.004-.003-.004-.003-.003-.004-.003-.004-.003-.004-.003-.003-.004-.003-.004-.003-.003-.004-.003-.004-.003-.004-.003-.003-.004-.003-.004-.003-.004-.003-.003-.004-.003-.004-.003-.004-.003-.003-.004-.003-.004-.003-.004-.003-.003-.004-.003-.004-.003-.003-.004-.003-.004-.003-.004-.003-.003-.004-.003-.004-.003-.004-.003-.003-.004-.003-.004-.003-.004-.003-.004-.003-.003-.004-.003-.004-.003-.004-.003-.003-.004-.003-.004-.003-.004-.003-.003-.004-.003-.004-.003-.004-.003-.003-.004-.003-.004-.003-.004-.003-.003-.004-.003-.004-.003-.004-.003-.003-.004-.003-.004-.003-.004-.003-.004-.003-.003-.004-.003-.004-.003-.004-.003-.003-.004-.003-.004-.003-.004-.003-.004-.003-.003-.004-.003-.004-.003-.004-.003-.003-.004-.003-.004-.003-.004-.003-.004-.003-.003-.004-.003-.004-.003-.004-.003-.004-.003-.004-.003-.003-.004-.003-.004-.003-.004-.003-.003-.004-.003-.004-.003-.004-.003-.004-.003-.003-.004-.003-.004-.003-.004-.003-.004-.003-.004-.003-.003-.004-.003-.004-.003-.004-.003-.004-.003-.004-.003-.003-.004-.003-.004-.003-.004-.003-.003-.004-.003-.004-.003-.004-.003-.004-.003-.004-.003-.003-.004-.003-.004-.003-.004-.003-.004-.003-.004-.003-.003-.004-.003-.004-.003-.004-.003h-.06zm.018 1.78l.035.015.023-.056-.034-.015-.024.057zm.071.005c.03-.04.062-.08.092-.122l-.05-.036-.091.122.049.036zm.092-.122c.427-.583.916-1.098 1.565-1.446l-.03-.054c-.659.354-1.154.877-1.584 1.464l.05.036zm1.565-1.446c.724-.39 1.508-.52 2.325-.497l.002-.061c-.825-.024-1.62.108-2.356.504l.029.054zm2.325-.497c.885.025 1.724.221 2.478.688l.033-.052c-.766-.474-1.616-.672-2.509-.697l-.002.06zm2.478.688c.968.6 1.558 1.476 1.904 2.53l.058-.02c-.35-1.064-.947-1.954-1.93-2.562l-.032.052zm1.904 2.53c.27.821.359 1.67.36 2.53h.06c0-.865-.09-1.72-.362-2.55l-.058.02zm.36 2.53c.002 2.481 0 4.963 0 7.445h.061c0-2.482.002-4.964 0-7.445h-.061zm0 7.445c0 .047-.004.094-.007.151l.06.004c.004-.055.008-.105.008-.155h-.06z" fill="#070707" mask="url(#a)"/><path d="M16.221 29.216h0H11.998V16.17H16.222V29.216zM14.292 9.667c.666-.001 1.234.231 1.635.629.402.397.639.96.641 1.621.002.654-.236 1.212-.643 1.607-.408.394-.986.626-1.665.626-1.324.001-2.267-.93-2.27-2.238-.002-1.31.955-2.244 2.302-2.245z" fill="#070707" stroke="#070707" stroke-width=".031"/></svg>